<?xml version="1.0" encoding="utf-8"?>
<svg id="svg" version="1.1" width="400" height="400" viewBox="0, 0, 400,400" xmlns="http://www.w3.org/2000/svg">
  <g id="svgg">
    <path id="path0" d="M292.880 177.186 C 291.039 177.634,291.092 177.347,291.771 183.255 C 292.763 191.894,292.951 197.071,292.439 201.617 C 291.376 211.038,291.103 212.684,289.728 217.927 C 286.923 228.627,288.063 228.166,292.511 216.800 C 295.072 210.257,294.962 210.673,297.294 198.800 C 297.531 197.590,297.743 192.190,297.763 186.800 L 297.800 177.000 296.000 176.932 C 295.010 176.894,293.606 177.009,292.880 177.186 M282.221 177.913 C 281.944 178.189,279.552 178.515,273.000 179.168 C 261.006 180.363,261.492 180.024,263.052 186.115 C 269.136 209.880,256.410 242.795,235.522 257.318 C 207.067 277.101,166.972 268.898,147.775 239.365 C 146.500 237.404,145.019 235.131,144.484 234.314 C 143.948 233.496,142.762 230.810,141.848 228.345 C 139.798 222.815,140.216 222.976,135.770 226.000 C 134.602 226.794,131.939 228.997,129.604 231.100 C 128.566 232.035,127.531 232.800,127.305 232.800 C 127.078 232.800,126.600 233.246,126.242 233.792 C 125.885 234.337,125.090 235.043,124.476 235.361 C 123.862 235.678,123.016 236.575,122.597 237.353 L 121.835 238.768 124.087 243.284 C 127.450 250.026,136.120 262.000,137.640 262.000 C 137.870 262.000,138.720 262.741,139.529 263.647 C 142.657 267.149,154.563 275.293,161.978 279.003 C 164.339 280.184,164.727 280.191,174.000 279.217 C 175.870 279.020,180.010 278.585,183.200 278.249 C 186.390 277.914,189.900 277.456,191.000 277.231 C 192.100 277.006,194.530 276.626,196.400 276.385 C 203.192 275.511,211.940 273.660,224.600 270.420 C 234.653 267.848,253.742 260.077,260.991 255.608 C 264.898 253.198,275.354 244.234,277.127 241.773 C 282.072 234.910,286.691 221.850,287.869 211.400 C 288.296 207.610,288.437 192.917,288.059 191.600 C 287.837 190.830,287.450 188.400,287.198 186.200 C 286.658 181.496,286.087 178.962,285.456 178.468 C 284.819 177.972,282.551 177.582,282.221 177.913 M251.600 181.830 C 249.510 182.119,246.180 182.641,244.200 182.990 C 242.220 183.339,239.480 183.730,238.111 183.858 C 234.574 184.190,234.446 184.476,235.841 188.912 C 239.529 200.646,236.252 216.703,227.819 228.214 C 225.589 231.257,219.138 235.617,215.000 236.878 C 193.831 243.325,177.312 237.834,169.384 221.715 C 168.387 219.688,167.422 217.937,167.238 217.823 C 167.054 217.710,166.493 216.488,165.990 215.108 C 165.487 213.729,164.924 212.429,164.738 212.220 C 164.552 212.011,164.400 211.420,164.400 210.907 C 164.400 209.063,160.428 210.306,155.399 213.723 C 154.528 214.315,153.631 214.802,153.407 214.804 C 152.922 214.810,145.705 219.253,144.700 220.165 C 143.784 220.996,143.817 222.276,144.831 225.313 C 156.362 259.806,204.298 276.793,231.593 256.059 C 232.360 255.476,233.742 254.517,234.664 253.927 C 242.229 249.090,252.669 234.967,256.541 224.334 C 261.393 211.012,262.054 188.636,257.789 182.126 C 257.107 181.086,257.011 181.082,251.600 181.830 M227.400 186.183 C 224.285 186.856,218.478 188.333,217.200 188.778 C 216.650 188.969,214.580 189.606,212.600 190.194 C 206.721 191.939,205.482 192.719,207.415 193.461 C 209.106 194.110,210.731 198.987,210.339 202.238 C 209.875 206.093,206.689 211.200,204.747 211.200 C 204.512 211.200,203.701 211.494,202.943 211.854 C 197.237 214.562,189.600 208.548,189.600 201.347 C 189.600 199.468,189.444 198.715,189.020 198.552 C 188.491 198.349,183.553 200.072,182.600 200.792 C 182.380 200.958,181.214 201.416,180.009 201.809 C 174.638 203.563,168.000 207.126,168.000 208.256 C 168.000 209.948,170.807 217.617,172.059 219.345 C 172.687 220.211,173.200 221.151,173.200 221.434 C 173.200 223.043,179.820 229.910,184.000 232.637 C 189.402 236.160,198.503 237.681,204.801 236.111 C 205.791 235.864,207.860 235.352,209.400 234.972 C 211.982 234.335,215.810 232.579,219.821 230.192 C 222.969 228.318,228.319 221.831,229.705 218.205 C 233.048 209.460,234.134 193.846,231.847 187.400 C 231.191 185.550,230.811 185.446,227.400 186.183 M115.456 243.321 C 114.386 244.245,111.024 247.475,107.983 250.500 C 104.943 253.525,102.283 256.000,102.074 256.000 C 101.524 256.000,100.400 257.837,100.400 258.734 C 100.400 260.221,109.063 273.679,113.281 278.745 L 115.400 281.290 135.221 281.109 C 158.592 280.896,157.850 281.047,152.528 277.575 C 138.705 268.559,127.132 257.008,120.590 245.700 C 117.880 241.017,118.040 241.091,115.456 243.321 M87.902 269.926 C 75.416 282.444,74.842 281.564,95.317 281.295 C 103.503 281.187,110.281 281.026,110.379 280.937 C 110.608 280.730,109.370 278.605,107.968 276.800 C 106.944 275.481,102.508 268.185,99.639 263.100 C 97.825 259.885,98.043 259.759,87.902 269.926 " stroke="none" fill="#a26ad0" fill-rule="evenodd"/>
    <path id="path1" d="M 0 200 L 0 400 L 200 400 L 400 400 L 400 200 L 400 0 L 200 0 L 0 0 L 0 200 M 304.229 155.906 C 305.279 156.625 308.075 169.408 309.395 179.526 C 309.72 182.016 310.071 184.191 310.175 184.359 C 310.278 184.527 310.217 186.927 310.037 189.693 L 309.711 194.722 L 304.438 205.324 C 297.289 219.696 294.96 223.973 293.466 225.465 C 292.77 226.161 291.39 227.677 290.4 228.835 C 287.684 232.01 284.857 234.8 284.356 234.8 C 283.649 234.8 283.935 233.637 287.012 224 C 291.998 208.385 293.211 192.449 290.408 179.4 C 290.219 178.52 289.85 176.732 289.587 175.426 C 288.694 170.984 286.515 164.91 284.091 160.103 C 282.788 157.517 283.045 157.156 286.506 156.7 C 293.277 155.81 303.424 155.355 304.229 155.906 M 321.736 156.549 C 323.021 156.858 324.277 157.317 324.528 157.568 C 325.217 158.257 320.855 170.483 317.024 178.6 C 316.504 179.7 315.5 181.95 314.792 183.6 C 312.26 189.496 311.812 189.214 311.206 181.339 C 310.719 175.026 309.723 166.277 309.209 163.8 C 308.98 162.7 308.696 161.26 308.577 160.6 C 308.459 159.94 308.157 158.711 307.907 157.869 C 307.535 156.617 307.556 156.267 308.026 155.942 C 308.815 155.398 318.791 155.839 321.736 156.549 M 278.955 157.983 C 280.428 158.543 282.645 164.111 285.41 174.2 C 285.771 175.52 286.32 177.305 286.628 178.168 C 286.937 179.03 287.467 181.91 287.807 184.568 C 288.147 187.225 288.6 190.168 288.813 191.106 C 289.312 193.306 289.293 207.358 288.785 211 C 287.739 218.509 285.686 226.786 283.825 231 C 279.6 240.568 278.695 241.889 272.361 247.73 C 266.307 253.312 262.526 255.906 255.318 259.422 C 245.728 264.1 241.341 265.92 232.8 268.763 C 227.136 270.649 225.848 271.005 217.2 273.077 C 209.673 274.881 204.603 275.882 197.4 276.989 C 194.98 277.361 192.1 277.831 191 278.034 C 188.122 278.565 174.489 280.063 167.317 280.636 C 163.609 280.933 163.544 280.908 154.861 275.912 C 131.464 262.451 117.94 242.14 118.474 221.27 L 118.6 216.34 L 120 215.151 C 122.424 213.093 128.538 208.728 129.52 208.354 C 130.038 208.157 131.573 207.222 132.931 206.275 C 137.992 202.747 138.197 202.84 138.519 208.815 C 138.89 215.713 140.586 223.075 143.428 230.126 C 148.023 241.528 162.596 256.172 174.524 261.375 C 196.259 270.854 218.862 269.076 234.923 256.622 C 236.641 255.29 238.745 253.7 239.6 253.089 C 241.12 252.002 241.744 251.329 246.918 245.2 C 253.604 237.278 260.349 223.526 262.023 214.4 C 262.286 212.97 262.67 211.26 262.877 210.6 C 263.084 209.94 263.355 205.98 263.479 201.8 C 263.713 193.939 263.543 192.098 261.985 185.6 C 261.537 183.73 261.023 181.3 260.842 180.2 C 260.661 179.1 260.039 177.21 259.46 176 C 258.881 174.79 258.406 173.556 258.404 173.259 C 258.402 172.961 257.41 170.512 256.2 167.817 C 253.381 161.539 253.441 161.301 258 160.659 C 258.99 160.519 260.97 160.212 262.4 159.975 C 267.347 159.156 276.603 157.714 277.274 157.657 C 277.645 157.626 278.401 157.772 278.955 157.983 M 249.972 163.262 C 251.213 164.595 253.723 169.67 255.973 175.4 C 257.096 178.26 258.29 181.092 258.626 181.693 C 260.854 185.678 262.145 202.702 260.834 210.8 C 258.669 224.179 252.816 236.999 245.221 245 C 244.386 245.88 243.545 246.885 243.351 247.234 C 241.556 250.472 229.022 259.327 221.768 262.482 C 214.414 265.681 200.572 266.928 192.8 265.091 C 191.15 264.701 188.9 264.182 187.8 263.937 C 180.074 262.219 171.166 257.808 161.6 250.962 C 148.512 241.596 138.979 218.276 141.842 202.625 C 142.294 200.153 150.134 194.548 160.29 189.437 C 164.31 187.414 167.11 188.616 164.816 191.38 C 163.451 193.025 163.232 205.998 164.521 208.836 C 164.862 209.586 165.614 211.55 166.193 213.2 C 166.771 214.85 167.668 216.83 168.185 217.6 C 168.703 218.37 169.535 219.99 170.034 221.2 C 171.241 224.127 174.767 229.143 176.76 230.767 C 177.642 231.486 178.831 232.507 179.402 233.037 C 179.974 233.567 180.629 234 180.859 234 C 181.089 234 181.754 234.335 182.338 234.745 C 191.294 241.027 213.18 239.27 223.19 231.465 C 233.386 223.515 239.538 201.867 235.095 189.57 C 234.493 187.903 234 186.22 234 185.83 C 234 184.874 230.331 177.225 228.815 175.022 C 228.147 174.051 227.6 173.149 227.6 173.018 C 227.6 172.888 226.97 171.865 226.2 170.745 C 224.228 167.879 224.392 167.593 228.489 166.748 C 229.65 166.508 231.32 166.166 232.2 165.986 C 233.08 165.807 235.78 165.214 238.2 164.67 C 240.62 164.125 243.59 163.552 244.8 163.395 C 246.01 163.239 247.27 162.956 247.6 162.768 C 248.553 162.222 249.112 162.339 249.972 163.262 M 222.478 171.384 C 223.425 172.585 225.01 174.685 226 176.051 C 226.99 177.417 228.266 179.089 228.836 179.767 C 233.628 185.468 235.389 198.099 233.025 209.8 C 231.936 215.193 231.6 216.519 231.199 217.001 C 230.977 217.268 230.549 218.307 230.247 219.31 C 228.311 225.742 218.127 233.8 208.942 236.167 C 191.009 240.788 177.215 233.901 169.534 216.493 C 164.304 204.64 165.85 186.946 172.324 184.555 C 173.356 184.174 174.38 183.745 174.6 183.601 C 174.82 183.458 175.81 183.11 176.8 182.829 C 177.79 182.547 178.78 182.176 179 182.004 C 180.275 181.005 200.607 174.111 209.2 171.765 C 211.07 171.255 213.77 170.488 215.2 170.062 C 219.722 168.714 220.481 168.852 222.478 171.384 M 115.04 223.111 C 115.293 233.52 119.139 244.037 125.557 251.873 C 126.131 252.573 127.23 253.98 128 254.999 C 130.284 258.022 140.281 267.553 144.801 271.017 C 149.654 274.735 150.183 275.105 154.549 277.829 C 159.061 280.645 158.919 280.929 152.8 281.318 C 146.622 281.711 116.522 282.112 115.333 281.817 C 113.21 281.29 102.391 265.687 99.119 258.434 C 93.732 246.492 93.197 241.353 96.898 237.099 C 100.209 233.293 114.463 219.13 114.722 219.389 C 114.851 219.517 114.994 221.192 115.04 223.111 M 93.557 246.069 C 94.399 250.621 96.668 256.088 100.5 262.8 C 104.538 269.872 107.678 274.992 109.209 277 C 111.272 279.707 111.918 281.156 111.245 281.572 C 110.035 282.32 80.266 282.381 79.2 281.637 C 75.403 278.991 72.945 268.139 75.468 265.165 C 76.91 263.466 78.578 260.944 80.399 257.711 C 83.055 252.993 91.136 243.2 92.372 243.2 C 92.868 243.2 93.155 243.896 93.557 246.069 M 72.195 273.2 C 72.492 273.75 73.313 275.37 74.02 276.8 C 74.727 278.23 75.642 279.878 76.053 280.462 C 76.912 281.683 77.028 282.791 76.3 282.819 C 75.157 282.864 68.059 283.584 66.307 283.833 C 63.086 284.291 63.392 282.824 67.971 275.872 C 70.637 271.824 71.244 271.439 72.195 273.2" stroke="none" fill="#040404" fill-rule="evenodd"/>
    <path id="path2" d="M292.800 156.052 C 282.847 156.891,282.543 157.032,284.091 160.103 C 286.515 164.910,288.694 170.984,289.587 175.426 C 289.850 176.732,290.219 178.520,290.408 179.400 C 293.211 192.449,291.998 208.385,287.012 224.000 C 283.935 233.637,283.649 234.800,284.356 234.800 C 284.857 234.800,287.684 232.010,290.400 228.835 C 291.390 227.677,292.770 226.161,293.466 225.465 C 294.960 223.973,297.289 219.696,304.438 205.324 L 309.711 194.722 310.037 189.693 C 310.217 186.927,310.278 184.527,310.175 184.359 C 310.071 184.191,309.720 182.016,309.395 179.526 C 308.075 169.408,305.279 156.625,304.229 155.906 C 303.703 155.546,297.929 155.620,292.800 156.052 M308.026 155.942 C 307.556 156.267,307.535 156.617,307.907 157.869 C 308.157 158.711,308.459 159.940,308.577 160.600 C 308.696 161.260,308.980 162.700,309.209 163.800 C 309.723 166.277,310.719 175.026,311.206 181.339 C 311.812 189.214,312.260 189.496,314.792 183.600 C 315.500 181.950,316.504 179.700,317.024 178.600 C 320.855 170.483,325.217 158.257,324.528 157.568 C 323.264 156.304,309.469 154.946,308.026 155.942 M303.920 156.589 C 304.277 156.939,306.949 168.556,307.649 172.800 C 310.727 191.477,310.880 190.552,301.607 209.127 C 295.109 222.144,294.317 223.456,290.600 227.359 C 290.160 227.821,288.938 229.235,287.885 230.500 C 286.832 231.765,285.821 232.800,285.637 232.800 C 285.268 232.800,285.725 229.910,286.337 228.377 C 287.831 224.630,290.720 212.946,291.204 208.686 C 291.435 206.659,291.798 203.795,292.012 202.323 C 292.506 198.912,292.515 190.069,292.026 187.877 C 291.820 186.955,291.447 184.220,291.198 181.800 C 290.380 173.852,287.866 165.245,284.686 159.504 C 283.614 157.568,283.660 157.539,288.494 157.138 C 290.752 156.951,294.490 156.638,296.800 156.444 C 300.439 156.137,303.523 156.200,303.920 156.589 M318.836 156.820 C 324.585 157.538,324.794 157.866,322.563 162.675 C 322.033 163.817,321.600 164.944,321.600 165.182 C 321.600 165.796,317.291 176.250,316.153 178.397 C 315.629 179.385,315.200 180.439,315.200 180.738 C 315.200 181.154,313.862 183.963,312.900 185.567 C 312.550 186.150,312.247 184.696,311.972 181.110 C 311.426 173.973,310.499 166.350,309.635 161.880 C 309.176 159.504,308.800 157.299,308.800 156.980 C 308.800 156.261,313.728 156.182,318.836 156.820 M270.800 158.629 C 267.610 159.133,263.830 159.738,262.400 159.975 C 260.970 160.212,258.990 160.519,258.000 160.659 C 253.441 161.301,253.381 161.539,256.200 167.817 C 257.410 170.512,258.402 172.961,258.404 173.259 C 258.406 173.556,258.881 174.790,259.460 176.000 C 260.039 177.210,260.661 179.100,260.842 180.200 C 261.023 181.300,261.537 183.730,261.985 185.600 C 263.543 192.098,263.713 193.939,263.479 201.800 C 263.355 205.980,263.084 209.940,262.877 210.600 C 262.670 211.260,262.286 212.970,262.023 214.400 C 260.349 223.526,253.604 237.278,246.918 245.200 C 241.744 251.329,241.120 252.002,239.600 253.089 C 238.745 253.700,236.641 255.290,234.923 256.622 C 218.862 269.076,196.259 270.854,174.524 261.375 C 162.596 256.172,148.023 241.528,143.428 230.126 C 140.586 223.075,138.890 215.713,138.519 208.815 C 138.197 202.840,137.992 202.747,132.931 206.275 C 131.573 207.222,130.038 208.157,129.520 208.354 C 128.538 208.728,122.424 213.093,120.000 215.151 L 118.600 216.340 118.474 221.270 C 117.940 242.140,131.464 262.451,154.861 275.912 C 163.544 280.908,163.609 280.933,167.317 280.636 C 174.653 280.050,188.193 278.556,191.000 278.024 C 192.100 277.815,193.990 277.512,195.200 277.349 C 196.410 277.187,197.127 276.992,196.793 276.916 C 196.459 276.839,194.299 277.061,191.993 277.409 C 189.687 277.757,185.370 278.312,182.400 278.644 C 179.430 278.976,175.470 279.420,173.600 279.631 C 164.656 280.641,164.440 280.632,161.383 279.089 C 147.786 272.226,135.313 261.854,128.325 251.600 C 125.776 247.861,121.600 239.445,121.599 238.045 C 121.598 237.470,121.058 234.866,120.399 232.257 C 119.214 227.569,118.720 219.629,119.446 216.922 C 119.676 216.066,126.001 211.329,129.758 209.200 C 130.728 208.650,132.617 207.435,133.956 206.500 C 137.323 204.149,137.600 204.216,137.600 207.380 C 137.600 208.799,137.768 210.824,137.973 211.880 C 138.178 212.936,138.649 215.780,139.019 218.200 C 139.389 220.620,139.912 222.870,140.181 223.200 C 140.450 223.530,141.171 225.240,141.782 227.000 C 146.295 239.991,159.491 254.656,172.200 260.803 C 196.324 272.471,220.956 269.705,240.079 253.180 C 241.829 251.667,243.646 249.928,244.115 249.315 C 244.585 248.702,245.985 247.030,247.226 245.600 C 254.005 237.792,260.451 224.321,262.836 212.978 C 264.186 206.559,264.233 192.176,262.920 187.400 C 262.437 185.640,261.842 182.709,261.600 180.888 C 261.357 179.066,260.826 176.996,260.420 176.288 C 260.013 175.579,259.385 173.956,259.023 172.680 C 258.662 171.404,257.539 168.648,256.527 166.555 C 254.140 161.617,253.359 162.076,268.000 159.808 C 270.090 159.484,272.880 159.036,274.200 158.812 C 278.219 158.130,278.723 158.223,279.669 159.827 C 280.950 161.999,284.096 171.416,285.019 175.844 C 285.116 176.308,285.564 177.521,286.014 178.538 C 286.483 179.599,287.097 182.485,287.451 185.295 C 287.790 187.993,288.245 190.830,288.461 191.600 C 289.055 193.716,288.650 208.640,287.853 214.000 C 287.242 218.103,286.823 219.914,285.121 225.800 C 284.270 228.741,281.942 234.162,279.884 237.992 C 276.582 244.136,265.158 254.327,257.437 258.015 C 244.564 264.164,232.921 268.744,225.400 270.618 C 219.705 272.038,215.843 273.126,216.400 273.156 C 216.730 273.173,218.440 272.812,220.200 272.352 C 221.960 271.893,224.390 271.289,225.600 271.010 C 228.110 270.432,237.419 267.319,241.000 265.860 C 257.360 259.194,264.245 255.214,272.361 247.730 C 278.695 241.889,279.600 240.568,283.825 231.000 C 285.686 226.786,287.739 218.509,288.785 211.000 C 289.293 207.358,289.312 193.306,288.813 191.106 C 288.600 190.168,288.147 187.225,287.807 184.568 C 287.467 181.910,286.937 179.030,286.628 178.168 C 286.320 177.305,285.771 175.520,285.410 174.200 C 284.287 170.102,281.205 160.769,280.568 159.538 C 279.451 157.379,278.994 157.336,270.800 158.629 M247.600 162.768 C 247.270 162.956,246.010 163.239,244.800 163.395 C 243.590 163.552,240.620 164.125,238.200 164.670 C 235.780 165.214,233.080 165.807,232.200 165.986 C 223.816 167.696,224.001 167.549,226.200 170.745 C 226.970 171.865,227.600 172.888,227.600 173.018 C 227.600 173.149,228.147 174.051,228.815 175.022 C 230.331 177.225,234.000 184.874,234.000 185.830 C 234.000 186.220,234.493 187.903,235.095 189.570 C 239.538 201.867,233.386 223.515,223.190 231.465 C 213.180 239.270,191.294 241.027,182.338 234.745 C 181.754 234.335,181.089 234.000,180.859 234.000 C 180.629 234.000,179.974 233.567,179.402 233.037 C 178.831 232.507,177.642 231.486,176.760 230.767 C 174.767 229.143,171.241 224.127,170.034 221.200 C 169.535 219.990,168.703 218.370,168.185 217.600 C 167.668 216.830,166.771 214.850,166.193 213.200 C 165.614 211.550,164.862 209.586,164.521 208.836 C 163.232 205.998,163.451 193.025,164.816 191.380 C 167.110 188.616,164.310 187.414,160.290 189.437 C 150.134 194.548,142.294 200.153,141.842 202.625 C 138.979 218.276,148.512 241.596,161.600 250.962 C 171.166 257.808,180.074 262.219,187.800 263.937 C 188.900 264.182,191.150 264.701,192.800 265.091 C 200.572 266.928,214.414 265.681,221.768 262.482 C 229.022 259.327,241.556 250.472,243.351 247.234 C 243.545 246.885,244.386 245.880,245.221 245.000 C 252.816 236.999,258.669 224.179,260.834 210.800 C 262.145 202.702,260.854 185.678,258.626 181.693 C 258.290 181.092,257.096 178.260,255.973 175.400 C 251.890 165.004,249.636 161.603,247.600 162.768 M250.333 165.100 C 251.003 166.145,252.736 169.790,254.186 173.200 C 256.818 179.391,257.132 180.079,258.214 182.043 C 261.913 188.754,261.675 211.304,257.791 222.200 C 254.915 230.268,250.422 238.304,245.930 243.416 C 244.971 244.507,243.495 246.263,242.651 247.318 C 241.807 248.373,240.190 249.953,239.058 250.829 C 237.926 251.704,236.100 253.147,235.000 254.035 C 231.910 256.530,226.859 259.779,224.400 260.854 C 223.850 261.094,222.674 261.624,221.787 262.030 C 214.493 265.372,201.594 266.421,192.000 264.451 C 166.349 259.185,146.048 240.359,143.204 219.200 C 142.953 217.330,142.579 214.936,142.374 213.880 C 141.886 211.377,141.894 205.394,142.386 203.828 C 142.598 203.153,142.868 202.150,142.985 201.600 C 143.127 200.928,143.939 200.141,145.459 199.200 C 146.703 198.430,148.909 197.034,150.361 196.097 C 151.812 195.160,153.270 194.275,153.600 194.130 C 153.930 193.984,154.979 193.338,155.930 192.693 C 157.919 191.345,163.272 188.800,164.118 188.800 C 164.710 188.800,164.620 190.571,163.987 191.400 C 162.544 193.290,162.499 205.846,163.923 208.906 C 164.357 209.838,165.181 211.862,165.755 213.405 C 166.328 214.948,167.248 216.874,167.799 217.684 C 168.349 218.495,168.800 219.268,168.800 219.404 C 168.800 222.666,176.455 232.000,181.369 234.730 C 195.291 242.463,218.419 239.217,227.247 228.291 C 235.485 218.095,239.182 200.402,235.456 189.000 C 234.881 187.240,234.408 185.408,234.405 184.928 C 234.397 183.531,231.144 176.906,228.466 172.836 C 225.201 167.872,225.027 168.252,231.200 166.882 C 239.536 165.031,247.294 163.419,248.658 163.255 C 248.910 163.225,249.664 164.055,250.333 165.100 M215.200 170.062 C 213.770 170.488,211.070 171.255,209.200 171.765 C 200.607 174.111,180.275 181.005,179.000 182.004 C 178.780 182.176,177.790 182.547,176.800 182.829 C 175.810 183.110,174.820 183.458,174.600 183.601 C 174.380 183.745,173.356 184.174,172.324 184.555 C 165.850 186.946,164.304 204.640,169.534 216.493 C 177.215 233.901,191.009 240.788,208.942 236.167 C 218.127 233.800,228.311 225.742,230.247 219.310 C 230.549 218.307,230.977 217.268,231.199 217.001 C 231.600 216.519,231.936 215.193,233.025 209.800 C 235.389 198.099,233.628 185.468,228.836 179.767 C 228.266 179.089,226.990 177.417,226.000 176.051 C 220.475 168.428,220.546 168.468,215.200 170.062 M221.100 170.739 C 221.485 171.146,222.104 171.911,222.477 172.439 C 222.849 172.968,223.609 174.030,224.165 174.800 C 224.722 175.570,225.667 176.920,226.265 177.800 C 226.863 178.680,227.833 179.940,228.421 180.600 C 229.008 181.260,229.827 182.430,230.240 183.200 C 230.653 183.970,231.191 184.870,231.434 185.200 C 234.688 189.605,233.939 208.278,230.111 218.200 C 223.936 234.207,199.040 242.282,183.953 233.171 C 178.905 230.122,176.464 227.455,171.662 219.738 C 166.486 211.419,165.585 196.391,169.761 188.000 C 170.254 187.010,171.094 185.980,171.628 185.712 C 174.695 184.172,185.830 179.963,193.000 177.633 C 196.520 176.489,199.693 175.396,200.051 175.204 C 200.409 175.012,201.399 174.725,202.251 174.566 C 203.103 174.407,204.970 173.870,206.400 173.373 C 207.830 172.876,209.720 172.340,210.600 172.182 C 211.480 172.024,212.560 171.706,213.000 171.475 C 215.504 170.163,220.154 169.740,221.100 170.739 M196.600 191.346 C 188.737 194.835,189.392 206.967,197.573 209.364 C 203.524 211.107,207.993 207.857,209.015 201.043 C 209.915 195.036,202.079 188.916,196.600 191.346 M203.449 192.729 C 208.516 195.335,209.520 199.884,206.384 206.031 C 202.241 214.153,188.625 205.896,192.169 197.411 C 194.266 192.393,198.985 190.434,203.449 192.729 M106.744 226.919 C 95.485 238.207,94.852 238.983,94.548 241.891 C 94.193 245.291,95.778 251.028,99.119 258.434 C 102.107 265.057,112.956 280.960,115.030 281.756 C 115.901 282.091,146.831 282.011,147.687 281.672 C 148.065 281.522,141.135 281.453,132.287 281.518 C 123.439 281.583,115.837 281.545,115.394 281.434 C 113.168 280.876,101.604 263.425,99.601 257.600 C 99.336 256.830,98.583 254.850,97.927 253.200 C 93.352 241.684,93.374 241.621,106.769 228.057 L 113.739 221.000 114.021 222.800 C 114.177 223.790,114.516 226.580,114.774 229.000 C 115.267 233.613,117.101 239.919,118.382 241.400 C 118.762 241.840,119.744 243.370,120.562 244.800 C 123.102 249.236,123.726 250.193,126.200 253.445 C 128.679 256.704,137.230 265.523,140.400 268.090 C 141.390 268.892,143.190 270.352,144.400 271.335 C 145.610 272.318,148.940 274.690,151.800 276.606 C 158.213 280.902,158.171 280.744,152.929 280.908 L 148.600 281.044 153.200 281.022 C 158.909 280.995,159.057 280.643,154.549 277.829 C 150.183 275.105,149.654 274.735,144.801 271.017 C 140.281 267.553,130.284 258.022,128.000 254.999 C 127.230 253.980,126.131 252.573,125.557 251.873 C 119.139 244.037,115.293 233.520,115.040 223.111 C 114.994 221.192,114.851 219.517,114.722 219.389 C 114.594 219.261,111.004 222.649,106.744 226.919 M89.759 245.352 C 86.634 248.784,81.921 255.007,80.399 257.711 C 78.578 260.944,76.910 263.466,75.468 265.165 C 72.945 268.139,75.403 278.991,79.200 281.637 C 80.266 282.381,110.035 282.320,111.245 281.572 C 111.918 281.156,111.272 279.707,109.209 277.000 C 107.678 274.992,104.538 269.872,100.500 262.800 C 96.668 256.088,94.399 250.621,93.557 246.069 C 92.898 242.508,92.428 242.419,89.759 245.352 M92.579 245.900 C 93.227 249.521,96.393 257.289,98.571 260.600 C 99.294 261.700,100.468 263.654,101.178 264.941 C 103.398 268.964,107.600 275.706,109.289 277.954 C 112.064 281.647,113.108 281.365,95.600 281.657 C 77.695 281.956,79.459 282.389,76.973 277.091 C 75.644 274.259,75.415 273.347,75.270 270.315 L 75.103 266.811 77.451 263.636 C 78.743 261.890,80.913 258.692,82.273 256.531 C 84.591 252.848,86.022 250.960,90.031 246.300 C 92.002 244.009,92.234 243.972,92.579 245.900 M67.971 275.872 C 63.392 282.824,63.086 284.291,66.307 283.833 C 68.059 283.584,75.157 282.864,76.300 282.819 C 77.028 282.791,76.912 281.683,76.053 280.462 C 75.642 279.878,74.727 278.230,74.020 276.800 C 71.090 270.874,71.246 270.898,67.971 275.872 M71.867 274.100 C 72.088 274.595,73.018 276.469,73.934 278.266 C 74.850 280.062,75.600 281.608,75.600 281.702 C 75.600 282.340,68.602 283.152,65.673 282.854 C 64.704 282.755,66.433 279.227,69.572 274.900 C 70.981 272.957,71.306 272.844,71.867 274.100 M211.800 273.880 C 210.480 274.206,207.240 274.889,204.600 275.399 C 201.960 275.909,200.250 276.342,200.800 276.362 C 202.078 276.407,212.063 274.442,214.600 273.645 C 216.511 273.046,214.502 273.214,211.800 273.880 " stroke="none" fill="#4c2c63" fill-rule="evenodd"/>
    <path id="path3" d="M257.748 181.900 C 258.118 182.615,258.489 183.200,258.573 183.200 C 258.938 183.200,258.256 181.579,257.695 181.113 C 257.172 180.679,257.180 180.801,257.748 181.900 M262.068 183.800 C 262.074 184.240,262.224 185.050,262.400 185.600 L 262.720 186.600 262.732 185.600 C 262.738 185.050,262.589 184.240,262.400 183.800 L 262.056 183.000 262.068 183.800 M291.714 185.400 C 291.717 186.500,291.795 186.903,291.887 186.295 C 291.979 185.686,291.977 184.786,291.882 184.295 C 291.787 183.803,291.711 184.300,291.714 185.400 M259.849 189.400 C 259.968 190.500,260.217 191.557,260.401 191.748 C 260.586 191.940,260.587 191.400,260.403 190.548 C 259.792 187.715,259.631 187.380,259.849 189.400 M236.268 192.200 C 236.571 194.177,236.802 194.514,236.794 192.967 C 236.791 192.325,236.616 191.530,236.405 191.200 C 236.145 190.791,236.101 191.110,236.268 192.200 M288.570 200.400 C 288.570 205.130,288.628 207.065,288.698 204.700 C 288.769 202.335,288.769 198.465,288.698 196.100 C 288.628 193.735,288.570 195.670,288.570 200.400 M236.953 199.800 C 236.953 202.440,237.018 203.468,237.097 202.084 C 237.175 200.701,237.174 198.541,237.095 197.284 C 237.016 196.028,236.952 197.160,236.953 199.800 M291.720 205.200 C 291.720 206.410,291.795 206.905,291.887 206.300 C 291.978 205.695,291.978 204.705,291.887 204.100 C 291.795 203.495,291.720 203.990,291.720 205.200 M236.467 205.650 C 236.430 206.228,236.305 207.308,236.189 208.050 C 235.996 209.286,236.015 209.317,236.408 208.414 C 236.645 207.871,236.770 206.791,236.686 206.014 C 236.577 204.992,236.516 204.891,236.467 205.650 M263.693 207.200 C 263.693 207.970,263.775 208.285,263.876 207.900 C 263.976 207.515,263.976 206.885,263.876 206.500 C 263.775 206.115,263.693 206.430,263.693 207.200 M235.190 212.078 C 234.915 213.245,234.348 215.078,233.930 216.152 C 233.032 218.461,233.187 219.080,234.119 216.904 C 234.986 214.880,236.163 210.430,235.901 210.168 C 235.785 210.052,235.465 210.912,235.190 212.078 M263.022 211.422 C 262.872 212.225,262.828 212.962,262.926 213.060 C 263.024 213.157,263.227 212.581,263.378 211.778 C 263.528 210.975,263.572 210.238,263.474 210.140 C 263.376 210.043,263.173 210.619,263.022 211.422 M262.446 214.685 C 262.421 215.171,261.970 216.925,261.444 218.581 C 260.917 220.238,260.619 221.512,260.781 221.412 C 261.269 221.110,262.874 215.264,262.677 214.506 C 262.534 213.958,262.482 213.998,262.446 214.685 M289.822 215.822 C 289.672 216.625,289.628 217.362,289.726 217.460 C 289.824 217.557,290.027 216.981,290.178 216.178 C 290.328 215.375,290.372 214.638,290.274 214.540 C 290.176 214.443,289.973 215.019,289.822 215.822 M166.400 216.098 C 166.400 216.458,166.583 216.866,166.806 217.004 C 167.030 217.142,167.665 218.098,168.218 219.128 C 168.771 220.157,169.108 220.569,168.967 220.043 C 168.605 218.694,166.400 215.305,166.400 216.098 M257.493 221.893 C 257.120 223.133,256.881 224.214,256.963 224.296 C 257.045 224.378,257.427 223.441,257.813 222.213 C 258.199 220.986,258.438 219.905,258.344 219.811 C 258.250 219.716,257.867 220.654,257.493 221.893 M231.478 221.805 C 231.112 222.572,230.895 223.200,230.996 223.200 C 231.270 223.200,232.484 220.751,232.301 220.568 C 232.214 220.481,231.844 221.038,231.478 221.805 M143.854 223.400 C 144.274 225.303,144.848 226.446,144.556 224.800 C 144.420 224.030,144.146 223.130,143.949 222.800 C 143.714 222.408,143.681 222.616,143.854 223.400 M230.153 224.100 C 229.990 224.375,229.575 225.043,229.229 225.585 C 228.838 226.197,228.790 226.452,229.103 226.259 C 229.620 225.940,230.968 223.600,230.634 223.600 C 230.531 223.600,230.315 223.825,230.153 224.100 M258.512 226.745 C 257.773 228.497,257.521 229.411,257.922 228.889 C 258.616 227.983,260.177 224.033,259.930 223.808 C 259.858 223.743,259.220 225.065,258.512 226.745 M284.899 225.190 C 284.196 227.442,284.313 228.158,285.043 226.073 C 285.376 225.123,285.592 224.176,285.523 223.969 C 285.454 223.761,285.173 224.311,284.899 225.190 M173.394 228.286 C 173.995 229.213,175.143 230.462,175.944 231.060 C 177.295 232.070,176.175 230.676,172.680 227.000 C 172.471 226.780,172.792 227.359,173.394 228.286 M225.600 229.915 C 224.170 231.381,223.540 232.197,224.200 231.727 C 225.348 230.910,226.836 229.399,227.969 227.900 C 228.939 226.617,228.225 227.224,225.600 229.915 M142.202 229.200 C 142.570 230.422,144.347 234.000,144.586 234.000 C 144.761 234.000,142.424 228.767,142.085 228.400 C 141.984 228.290,142.036 228.650,142.202 229.200 M147.589 232.700 C 148.515 234.515,149.340 236.000,149.423 236.000 C 149.795 236.000,147.051 230.533,146.311 229.800 C 146.089 229.580,146.664 230.885,147.589 232.700 M253.150 232.100 C 252.674 233.035,252.021 234.250,251.700 234.800 C 251.139 235.759,251.143 235.767,251.790 235.000 C 252.573 234.070,254.508 230.400,254.215 230.400 C 254.106 230.400,253.627 231.165,253.150 232.100 M178.888 233.413 C 179.486 234.043,180.047 234.477,180.135 234.379 C 180.223 234.280,179.733 233.765,179.047 233.234 L 177.800 232.269 178.888 233.413 M221.241 233.434 C 220.493 233.965,220.078 234.400,220.319 234.400 C 220.559 234.400,221.260 233.956,221.878 233.413 C 223.291 232.169,223.008 232.179,221.241 233.434 M181.850 235.280 C 182.155 235.775,184.404 236.865,184.826 236.724 C 185.030 236.656,184.399 236.230,183.423 235.778 C 182.447 235.325,181.739 235.102,181.850 235.280 M251.600 239.732 C 250.610 241.292,249.264 243.205,248.609 243.984 C 247.752 245.003,247.682 245.176,248.358 244.600 C 249.368 243.739,253.814 237.271,253.556 237.037 C 253.470 236.960,252.590 238.172,251.600 239.732 M188.200 238.000 C 188.640 238.189,189.360 238.338,189.800 238.332 C 190.443 238.323,190.404 238.257,189.600 238.000 C 188.232 237.562,187.181 237.562,188.200 238.000 M248.800 239.200 C 248.330 239.860,248.036 240.400,248.146 240.400 C 248.256 240.400,248.730 239.860,249.200 239.200 C 249.670 238.540,249.964 238.000,249.854 238.000 C 249.744 238.000,249.270 238.540,248.800 239.200 M191.800 238.828 C 192.240 239.002,193.860 239.142,195.400 239.140 C 198.946 239.136,198.358 238.914,194.200 238.688 C 192.427 238.591,191.357 238.654,191.800 238.828 M206.500 238.676 C 206.885 238.776,207.515 238.776,207.900 238.676 C 208.285 238.575,207.970 238.493,207.200 238.493 C 206.430 238.493,206.115 238.575,206.500 238.676 M201.300 239.091 C 202.125 239.178,203.475 239.178,204.300 239.091 C 205.125 239.005,204.450 238.934,202.800 238.934 C 201.150 238.934,200.475 239.005,201.300 239.091 M148.926 241.029 C 149.550 242.264,150.689 243.450,150.970 243.157 C 151.052 243.071,150.486 242.280,149.712 241.400 C 148.425 239.938,148.357 239.906,148.926 241.029 M158.200 247.200 C 159.728 248.740,161.069 250.000,161.179 250.000 C 161.289 250.000,160.128 248.740,158.600 247.200 C 157.072 245.660,155.731 244.400,155.621 244.400 C 155.511 244.400,156.672 245.660,158.200 247.200 M271.387 247.700 L 269.000 250.200 271.500 247.813 C 272.875 246.499,274.000 245.374,274.000 245.313 C 274.000 245.017,273.605 245.378,271.387 247.700 M245.320 247.891 C 244.484 248.930,243.000 250.505,242.022 251.391 C 237.445 255.534,236.846 256.203,239.558 254.143 C 242.556 251.866,247.946 246.000,247.040 246.000 C 246.930 246.000,246.156 246.851,245.320 247.891 M125.925 247.800 C 126.372 248.680,127.033 249.760,127.394 250.200 C 127.755 250.640,127.559 250.100,126.959 249.000 C 125.616 246.538,124.807 245.599,125.925 247.800 M240.981 248.900 L 239.400 250.600 241.100 249.019 C 242.035 248.149,242.800 247.384,242.800 247.319 C 242.800 247.016,242.452 247.319,240.981 248.900 M158.402 251.342 C 160.350 253.446,166.000 258.023,166.000 257.497 C 166.000 257.387,164.965 256.522,163.700 255.574 C 162.435 254.626,160.321 252.849,159.002 251.625 C 156.664 249.457,156.649 249.449,158.402 251.342 M128.400 251.354 C 128.400 252.092,131.543 256.078,135.200 259.978 C 136.753 261.633,135.606 260.080,133.149 257.200 C 131.929 255.770,130.361 253.808,129.665 252.840 C 128.969 251.872,128.400 251.203,128.400 251.354 M125.718 253.355 C 126.203 254.100,126.942 254.928,127.361 255.196 C 127.779 255.463,127.442 254.854,126.612 253.841 C 124.825 251.660,124.501 251.484,125.718 253.355 M166.000 253.333 C 166.000 253.491,167.826 254.740,170.200 256.206 C 171.656 257.105,171.118 256.531,169.200 255.140 C 167.649 254.016,166.000 253.084,166.000 253.333 M234.100 254.374 C 233.209 255.019,232.353 255.752,232.198 256.003 C 231.982 256.353,235.112 254.154,235.967 253.356 C 236.587 252.776,235.447 253.398,234.100 254.374 M259.099 256.751 C 255.629 258.701,255.096 259.251,258.200 257.680 C 260.395 256.569,262.487 255.219,262.000 255.230 C 261.890 255.232,260.585 255.917,259.099 256.751 M128.317 256.600 C 128.545 257.040,129.332 257.940,130.066 258.599 L 131.400 259.798 130.001 258.199 C 129.232 257.320,128.445 256.420,128.252 256.200 C 128.060 255.980,128.089 256.160,128.317 256.600 M233.000 258.650 C 232.281 259.262,232.134 259.505,232.633 259.257 C 233.366 258.893,234.741 257.576,234.349 257.614 C 234.267 257.622,233.660 258.088,233.000 258.650 M177.200 259.734 C 177.200 259.837,177.781 260.124,178.491 260.372 C 179.201 260.619,179.606 260.657,179.391 260.456 C 178.935 260.029,177.200 259.458,177.200 259.734 M224.200 260.614 C 223.540 260.917,223.281 261.172,223.624 261.182 C 223.966 261.192,224.596 260.936,225.024 260.613 C 225.972 259.896,225.769 259.896,224.200 260.614 M98.401 260.551 C 98.399 261.087,100.861 265.272,101.060 265.073 C 101.156 264.977,100.598 263.841,99.819 262.549 C 99.039 261.257,98.402 260.358,98.401 260.551 M224.000 263.400 C 223.010 263.930,222.342 264.372,222.516 264.382 C 222.941 264.406,226.000 262.834,226.000 262.592 C 226.000 262.327,226.017 262.320,224.000 263.400 M217.200 263.218 C 216.762 263.515,216.924 263.552,217.800 263.356 C 219.271 263.027,219.590 262.798,218.567 262.806 C 218.145 262.809,217.530 262.995,217.200 263.218 M103.230 265.000 C 103.724 265.880,104.300 266.780,104.510 267.000 C 105.109 267.628,103.739 265.094,102.996 264.200 C 102.630 263.760,102.735 264.120,103.230 265.000 M213.656 264.059 C 212.917 264.272,212.383 264.517,212.470 264.603 C 212.557 264.690,213.521 264.516,214.614 264.216 C 215.706 263.917,216.240 263.672,215.800 263.672 C 215.360 263.672,214.395 263.846,213.656 264.059 M194.200 264.800 C 195.892 265.231,197.344 265.231,196.000 264.800 C 195.450 264.624,194.550 264.483,194.000 264.487 C 193.102 264.494,193.122 264.526,194.200 264.800 M219.800 265.014 C 219.140 265.317,218.870 265.564,219.200 265.564 C 219.530 265.564,220.340 265.317,221.000 265.014 C 221.660 264.712,221.930 264.465,221.600 264.465 C 221.270 264.465,220.460 264.712,219.800 265.014 M209.105 265.083 C 209.602 265.179,210.322 265.175,210.705 265.075 C 211.087 264.975,210.680 264.896,209.800 264.901 C 208.920 264.905,208.607 264.987,209.105 265.083 M183.400 265.487 C 183.884 265.976,187.196 266.812,188.477 266.768 C 188.985 266.751,188.320 266.497,187.000 266.204 C 185.680 265.912,184.240 265.540,183.800 265.377 C 183.262 265.179,183.131 265.215,183.400 265.487 M200.517 265.497 C 202.011 265.574,204.351 265.574,205.717 265.496 C 207.082 265.418,205.860 265.355,203.000 265.355 C 200.140 265.356,199.022 265.420,200.517 265.497 M101.724 266.600 C 102.062 267.260,102.638 268.160,103.004 268.600 C 103.370 269.040,103.265 268.680,102.770 267.800 C 101.680 265.858,100.864 264.922,101.724 266.600 M142.400 266.794 C 144.343 268.549,146.001 269.717,145.995 269.327 C 145.992 269.147,145.407 268.602,144.695 268.117 C 143.983 267.631,142.860 266.850,142.200 266.381 C 141.203 265.674,141.237 265.744,142.400 266.794 M216.600 266.000 C 216.096 266.217,216.022 266.344,216.400 266.344 C 216.730 266.344,217.360 266.189,217.800 266.000 C 218.304 265.783,218.378 265.656,218.000 265.656 C 217.670 265.656,217.040 265.811,216.600 266.000 M140.276 268.243 C 141.418 269.319,142.948 270.624,143.676 271.143 L 145.000 272.085 143.760 270.943 C 143.079 270.314,142.089 269.442,141.560 269.004 C 138.786 266.705,138.406 266.480,140.276 268.243 M106.296 269.888 C 107.936 272.425,109.841 274.975,109.369 274.000 C 108.806 272.839,105.545 268.013,105.164 267.778 C 104.952 267.647,105.461 268.596,106.296 269.888 M201.300 268.287 C 201.905 268.378,202.895 268.378,203.500 268.287 C 204.105 268.195,203.610 268.120,202.400 268.120 C 201.190 268.120,200.695 268.195,201.300 268.287 M230.200 268.800 C 229.908 269.273,230.299 269.273,231.400 268.800 C 232.171 268.469,232.169 268.455,231.324 268.428 C 230.842 268.413,230.336 268.580,230.200 268.800 M104.613 271.500 C 106.681 275.106,107.801 276.799,108.119 276.799 C 108.295 276.800,107.923 276.035,107.293 275.100 C 106.664 274.165,105.657 272.545,105.057 271.500 C 104.457 270.455,103.867 269.600,103.745 269.600 C 103.623 269.600,104.014 270.455,104.613 271.500 M148.600 271.392 C 150.288 272.865,151.674 273.625,150.727 272.558 C 150.357 272.141,149.457 271.473,148.727 271.072 L 147.400 270.345 148.600 271.392 M223.200 270.663 C 222.870 270.773,222.349 270.943,222.043 271.041 C 221.736 271.139,221.563 271.297,221.659 271.392 C 221.754 271.487,222.635 271.315,223.616 271.009 C 224.597 270.704,225.040 270.456,224.600 270.458 C 224.160 270.461,223.530 270.553,223.200 270.663 M145.379 272.366 C 145.680 272.852,149.200 275.332,149.200 275.057 C 149.200 274.957,148.281 274.215,147.158 273.408 C 146.035 272.601,145.235 272.132,145.379 272.366 M217.200 272.418 C 216.762 272.715,216.924 272.752,217.800 272.556 C 219.271 272.227,219.590 271.998,218.567 272.006 C 218.145 272.009,217.530 272.195,217.200 272.418 M213.600 273.206 C 213.178 273.482,213.415 273.523,214.400 273.342 C 216.125 273.025,216.451 272.798,215.167 272.806 C 214.635 272.809,213.930 272.989,213.600 273.206 M205.496 274.784 C 204.668 274.944,203.871 275.195,203.725 275.342 C 203.464 275.603,204.812 275.412,207.600 274.792 C 209.445 274.381,207.606 274.375,205.496 274.784 M192.900 277.076 C 193.285 277.176,193.915 277.176,194.300 277.076 C 194.685 276.975,194.370 276.893,193.600 276.893 C 192.830 276.893,192.515 276.975,192.900 277.076 M112.303 278.200 C 112.750 278.860,113.577 279.895,114.139 280.500 L 115.162 281.600 131.281 281.505 L 147.400 281.409 131.327 281.300 L 115.254 281.191 113.371 279.095 C 112.336 277.943,111.855 277.540,112.303 278.200 M180.600 278.400 L 178.600 278.674 180.400 278.690 C 181.390 278.699,183.370 278.575,184.800 278.414 L 187.400 278.122 185.000 278.124 C 183.680 278.125,181.700 278.249,180.600 278.400 M110.274 280.051 L 110.472 281.088 95.536 281.293 C 86.068 281.423,80.307 281.353,79.800 281.102 C 79.087 280.750,79.065 280.772,79.600 281.313 C 80.335 282.056,110.822 281.737,111.073 280.984 C 111.149 280.755,110.955 280.218,110.643 279.791 C 110.106 279.056,110.086 279.070,110.274 280.051 M155.917 279.696 C 156.339 280.208,156.339 280.360,155.917 280.530 C 155.633 280.644,155.805 280.751,156.300 280.768 C 156.795 280.786,157.200 280.626,157.200 280.414 C 157.200 280.202,156.795 279.812,156.300 279.549 C 155.503 279.124,155.459 279.140,155.917 279.696 M172.700 279.489 C 173.415 279.578,174.585 279.578,175.300 279.489 C 176.015 279.401,175.430 279.328,174.000 279.328 C 172.570 279.328,171.985 279.401,172.700 279.489 M164.900 280.291 C 165.725 280.378,167.075 280.378,167.900 280.291 C 168.725 280.205,168.050 280.134,166.400 280.134 C 164.750 280.134,164.075 280.205,164.900 280.291 " stroke="none" fill="#615473" fill-rule="evenodd"/>
    <path id="path4" d="M296.800 156.444 C 294.490 156.638,290.752 156.951,288.494 157.138 C 283.660 157.539,283.614 157.568,284.686 159.504 C 287.134 163.924,290.672 174.717,290.854 178.325 C 290.902 179.267,290.930 179.289,291.082 178.501 C 291.288 177.435,292.480 177.044,295.600 177.018 L 297.800 177.000 297.763 186.800 C 297.743 192.190,297.531 197.590,297.294 198.800 C 294.962 210.673,295.072 210.257,292.511 216.800 C 289.660 224.085,288.054 226.881,287.960 224.724 C 287.933 224.115,287.798 224.316,287.563 225.313 C 287.367 226.145,286.930 227.363,286.590 228.018 C 285.839 229.471,285.176 232.800,285.637 232.800 C 285.821 232.800,286.832 231.765,287.885 230.500 C 288.938 229.235,290.160 227.821,290.600 227.359 C 294.317 223.456,295.109 222.144,301.607 209.127 C 310.880 190.552,310.727 191.477,307.649 172.800 C 306.949 168.556,304.277 156.939,303.920 156.589 C 303.523 156.200,300.439 156.137,296.800 156.444 M308.800 156.980 C 308.800 157.299,309.176 159.504,309.635 161.880 C 310.499 166.350,311.426 173.973,311.972 181.110 C 312.247 184.696,312.550 186.150,312.900 185.567 C 313.862 183.963,315.200 181.154,315.200 180.738 C 315.200 180.439,315.629 179.385,316.153 178.397 C 317.291 176.250,321.600 165.796,321.600 165.182 C 321.600 164.944,322.033 163.817,322.563 162.675 C 324.104 159.353,324.246 158.087,323.131 157.625 C 320.340 156.470,308.800 155.950,308.800 156.980 M273.800 158.850 C 272.700 159.045,270.090 159.473,268.000 159.801 C 253.302 162.106,254.139 161.613,256.527 166.555 C 257.539 168.648,258.662 171.404,259.023 172.680 C 259.385 173.956,260.027 175.603,260.451 176.340 C 260.874 177.078,261.340 178.788,261.485 180.140 C 261.676 181.921,261.816 182.324,261.992 181.600 C 262.258 180.501,264.254 180.056,272.800 179.189 C 274.890 178.977,277.860 178.618,279.400 178.392 C 284.787 177.600,285.615 177.840,286.335 180.400 C 286.551 181.170,286.744 181.475,286.764 181.078 C 286.784 180.681,286.449 179.585,286.020 178.643 C 285.590 177.701,285.150 176.496,285.041 175.965 C 284.131 171.524,280.971 162.034,279.669 159.827 C 278.738 158.249,277.934 158.115,273.800 158.850 M246.200 163.691 C 243.900 164.128,236.737 165.652,231.200 166.882 C 225.027 168.252,225.201 167.872,228.466 172.836 C 231.298 177.141,234.397 183.555,234.406 185.128 L 234.412 186.200 234.916 185.200 C 235.340 184.357,235.795 184.159,237.810 183.940 C 239.124 183.797,241.910 183.384,244.000 183.021 C 249.638 182.044,256.532 181.184,257.090 181.388 C 257.670 181.600,256.627 178.714,253.624 171.800 C 251.351 166.565,249.377 163.169,248.658 163.255 C 248.406 163.285,247.300 163.481,246.200 163.691 M216.000 170.569 C 214.790 170.837,213.440 171.245,213.000 171.475 C 212.560 171.706,211.480 172.024,210.600 172.182 C 209.720 172.340,207.830 172.876,206.400 173.373 C 204.970 173.870,203.103 174.407,202.251 174.566 C 201.399 174.725,200.409 175.013,200.051 175.205 C 199.693 175.398,196.250 176.586,192.400 177.843 C 185.476 180.106,179.775 182.211,179.000 182.790 C 178.780 182.955,178.066 183.218,177.414 183.374 C 176.233 183.657,173.480 184.767,171.628 185.707 C 167.515 187.794,165.327 209.223,168.844 212.980 C 169.313 213.481,169.296 213.345,168.596 211.036 C 167.487 207.381,167.429 207.464,172.909 204.859 C 175.609 203.575,178.804 202.203,180.009 201.809 C 181.214 201.416,182.380 200.958,182.600 200.792 C 183.553 200.072,188.491 198.349,189.020 198.552 C 189.444 198.715,189.600 199.468,189.600 201.347 C 189.600 208.548,197.237 214.562,202.943 211.854 C 203.701 211.494,204.512 211.200,204.747 211.200 C 206.689 211.200,209.875 206.093,210.339 202.238 C 210.731 198.987,209.106 194.110,207.415 193.461 C 205.482 192.719,206.721 191.939,212.600 190.194 C 214.580 189.606,216.650 188.969,217.200 188.778 C 220.133 187.758,230.270 185.490,230.923 185.708 C 232.399 186.200,233.417 195.556,232.838 203.292 C 232.419 208.875,232.521 210.438,233.050 206.534 C 234.535 195.563,232.722 185.389,228.429 180.600 C 227.837 179.940,226.863 178.680,226.265 177.800 C 225.667 176.920,224.722 175.570,224.165 174.800 C 223.609 174.030,222.849 172.968,222.477 172.439 C 220.629 169.814,220.099 169.662,216.000 170.569 M291.301 181.400 C 291.305 182.280,291.387 182.593,291.483 182.095 C 291.579 181.598,291.575 180.878,291.475 180.495 C 291.375 180.113,291.296 180.520,291.301 181.400 M287.714 189.400 C 287.717 190.500,287.795 190.903,287.887 190.295 C 287.979 189.686,287.977 188.786,287.882 188.295 C 287.787 187.803,287.711 188.300,287.714 189.400 M160.525 190.178 C 158.944 190.920,156.874 192.053,155.925 192.696 C 154.976 193.339,153.930 193.984,153.600 194.130 C 153.270 194.275,151.812 195.160,150.361 196.097 C 148.909 197.034,146.703 198.430,145.459 199.200 C 143.939 200.141,143.127 200.928,142.985 201.600 C 142.868 202.150,142.598 203.153,142.386 203.828 C 141.894 205.394,141.886 211.377,142.374 213.880 C 142.579 214.936,142.976 217.315,143.257 219.167 C 143.707 222.143,143.804 222.388,144.093 221.272 C 144.303 220.462,144.852 219.787,145.627 219.386 C 146.291 219.043,148.070 217.962,149.581 216.985 C 151.093 216.007,152.818 215.021,153.417 214.794 C 154.015 214.566,155.030 214.006,155.672 213.549 C 157.657 212.135,163.231 209.526,163.799 209.744 C 164.232 209.910,164.219 209.664,163.733 208.501 C 162.472 205.484,162.718 192.192,164.050 191.369 C 164.598 191.030,164.467 188.798,163.900 188.814 C 163.625 188.822,162.106 189.436,160.525 190.178 M203.600 191.869 C 212.045 195.319,209.662 210.000,200.658 210.000 C 191.896 210.000,187.891 200.197,193.923 193.516 C 196.414 190.755,199.563 190.219,203.600 191.869 M292.548 196.000 C 292.548 198.310,292.614 199.255,292.695 198.100 C 292.776 196.945,292.776 195.055,292.695 193.900 C 292.614 192.745,292.548 193.690,292.548 196.000 M264.165 199.200 C 264.165 203.050,264.225 204.625,264.298 202.700 C 264.371 200.775,264.371 197.625,264.298 195.700 C 264.225 193.775,264.165 195.350,264.165 199.200 M260.528 201.600 C 260.528 203.030,260.601 203.615,260.689 202.900 C 260.778 202.185,260.778 201.015,260.689 200.300 C 260.601 199.585,260.528 200.170,260.528 201.600 M134.200 206.258 C 133.100 207.038,132.110 207.814,132.000 207.982 C 131.890 208.149,130.990 208.668,130.000 209.134 C 127.520 210.301,119.882 215.816,119.537 216.688 C 118.714 218.772,119.197 227.504,120.399 232.257 C 121.058 234.866,121.599 237.450,121.601 238.000 C 121.604 238.918,121.679 238.876,122.521 237.485 C 123.026 236.651,124.004 235.626,124.694 235.206 C 125.384 234.786,126.147 234.073,126.389 233.621 C 126.630 233.170,127.028 232.800,127.273 232.800 C 127.517 232.800,128.566 232.035,129.604 231.100 C 131.939 228.997,134.602 226.794,135.770 226.000 C 138.610 224.068,139.451 223.618,139.900 223.787 C 140.478 224.004,140.563 223.536,140.047 222.980 C 139.732 222.641,139.334 220.454,137.979 211.600 C 137.760 210.170,137.540 208.102,137.490 207.004 C 137.377 204.493,136.854 204.374,134.200 206.258 M260.101 209.800 C 260.105 210.680,260.187 210.993,260.283 210.495 C 260.379 209.998,260.375 209.278,260.275 208.895 C 260.175 208.513,260.096 208.920,260.101 209.800 M231.422 212.705 C 231.026 214.407,230.533 216.160,230.328 216.600 C 229.978 217.353,229.990 217.357,230.536 216.682 C 231.144 215.927,232.659 210.126,232.333 209.800 C 232.229 209.696,231.819 211.003,231.422 212.705 M165.429 213.600 C 165.576 214.150,165.864 214.870,166.067 215.200 C 166.325 215.617,166.357 215.495,166.171 214.800 C 166.024 214.250,165.736 213.530,165.533 213.200 C 165.275 212.783,165.243 212.905,165.429 213.600 M169.200 213.985 C 169.200 214.697,170.857 218.593,171.431 219.231 C 171.743 219.577,172.404 220.661,172.899 221.639 C 175.352 226.480,181.734 232.491,186.698 234.637 C 188.532 235.430,192.104 236.430,192.322 236.212 C 192.409 236.124,191.698 235.854,190.740 235.611 C 184.618 234.059,173.200 224.830,173.200 221.434 C 173.200 221.151,172.688 220.213,172.061 219.348 C 171.435 218.484,170.611 216.837,170.229 215.688 C 169.578 213.727,169.200 213.102,169.200 213.985 M287.293 215.200 C 287.293 215.970,287.375 216.285,287.476 215.900 C 287.576 215.515,287.576 214.885,287.476 214.500 C 287.375 214.115,287.293 214.430,287.293 215.200 M258.629 217.029 C 258.481 217.615,258.438 218.172,258.532 218.266 C 258.627 218.360,258.824 217.958,258.971 217.371 C 259.119 216.785,259.162 216.228,259.068 216.134 C 258.973 216.040,258.776 216.442,258.629 217.029 M229.503 218.600 C 228.967 221.056,222.834 228.399,219.821 230.192 C 214.531 233.340,211.044 234.761,206.200 235.745 C 205.707 235.845,205.871 235.925,206.627 235.954 C 213.863 236.227,230.965 223.114,229.912 218.100 C 229.815 217.638,229.675 217.808,229.503 218.600 M168.994 221.101 C 170.159 223.393,170.395 223.737,170.398 223.144 C 170.399 222.784,170.026 222.064,169.570 221.544 C 169.113 221.025,168.854 220.826,168.994 221.101 M106.769 228.057 C 94.024 240.963,93.319 242.555,96.875 250.400 C 97.124 250.950,97.729 252.480,98.219 253.800 C 99.931 258.415,100.365 259.395,100.382 258.686 C 100.404 257.816,101.547 256.000,102.074 256.000 C 102.283 256.000,104.942 253.525,107.982 250.500 C 116.894 241.631,117.891 240.902,118.800 242.599 C 119.094 243.149,119.419 243.514,119.523 243.410 C 119.627 243.307,119.262 242.632,118.713 241.911 C 117.087 239.777,115.299 233.917,114.774 229.000 C 114.516 226.580,114.177 223.790,114.021 222.800 L 113.739 221.000 106.769 228.057 M288.229 222.229 C 288.081 222.815,288.038 223.372,288.132 223.466 C 288.227 223.560,288.424 223.158,288.571 222.571 C 288.719 221.985,288.762 221.428,288.668 221.334 C 288.573 221.240,288.376 221.642,288.229 222.229 M141.249 226.809 C 141.854 228.600,142.195 228.948,141.828 227.400 C 141.671 226.740,141.371 226.024,141.161 225.809 C 140.950 225.594,140.990 226.044,141.249 226.809 M254.678 229.005 C 254.312 229.772,254.095 230.400,254.196 230.400 C 254.470 230.400,255.684 227.951,255.501 227.768 C 255.414 227.681,255.044 228.238,254.678 229.005 M175.967 231.345 C 176.500 232.001,178.000 232.993,178.000 232.689 C 178.000 232.613,177.415 232.122,176.700 231.599 C 175.896 231.010,175.616 230.913,175.967 231.345 M201.800 236.466 C 200.260 236.664,197.560 236.744,195.800 236.644 C 193.101 236.491,192.850 236.525,194.200 236.863 C 195.977 237.307,203.822 236.949,204.795 236.379 C 205.128 236.184,205.220 236.043,205.000 236.065 C 204.780 236.087,203.340 236.267,201.800 236.466 M279.894 237.303 L 279.188 238.600 279.994 237.656 C 280.680 236.852,281.046 235.994,280.700 236.003 C 280.645 236.004,280.282 236.589,279.894 237.303 M153.145 241.400 C 153.373 241.840,154.029 242.740,154.601 243.400 C 155.174 244.060,155.455 244.240,155.227 243.800 C 154.998 243.360,154.342 242.460,153.770 241.800 C 153.197 241.140,152.916 240.960,153.145 241.400 M244.822 244.126 L 242.644 246.600 244.553 244.800 C 246.131 243.312,247.575 241.522,247.114 241.626 C 247.051 241.640,246.020 242.765,244.822 244.126 M123.600 242.953 C 123.600 243.382,124.790 245.600,125.021 245.600 C 125.131 245.600,124.923 245.015,124.559 244.300 C 123.817 242.840,123.600 242.536,123.600 242.953 M89.523 246.830 C 88.795 247.727,87.423 249.392,86.473 250.530 C 85.524 251.669,83.634 254.369,82.273 256.531 C 80.913 258.692,78.743 261.890,77.451 263.636 L 75.103 266.811 75.272 270.343 C 75.421 273.479,75.627 274.263,77.102 277.338 C 78.648 280.560,79.598 281.886,78.991 279.973 C 78.684 279.005,95.863 261.350,97.514 260.936 C 98.021 260.808,98.373 260.591,98.297 260.452 C 96.344 256.886,93.306 249.295,92.632 246.300 C 92.272 244.701,91.086 244.903,89.523 246.830 M122.257 248.591 C 122.813 249.586,123.347 250.400,123.442 250.400 C 123.723 250.400,122.048 247.277,121.629 247.018 C 121.418 246.888,121.701 247.595,122.257 248.591 M240.800 248.600 C 239.828 249.590,239.123 250.400,239.233 250.400 C 239.343 250.400,240.228 249.590,241.200 248.600 C 242.172 247.610,242.877 246.800,242.767 246.800 C 242.657 246.800,241.772 247.610,240.800 248.600 M269.200 249.275 C 267.770 250.616,266.960 251.522,267.400 251.287 C 268.165 250.879,272.369 246.781,271.985 246.818 C 271.883 246.827,270.630 247.933,269.200 249.275 M263.078 254.213 C 262.460 254.756,262.114 255.200,262.308 255.200 C 262.502 255.200,263.083 254.750,263.600 254.200 C 264.795 252.928,264.531 252.934,263.078 254.213 M231.600 256.060 C 230.830 256.735,230.562 257.105,231.004 256.881 C 231.735 256.511,233.547 254.778,233.162 254.816 C 233.073 254.825,232.370 255.385,231.600 256.060 M254.600 259.014 C 253.940 259.317,253.681 259.572,254.024 259.582 C 254.366 259.592,254.996 259.336,255.424 259.013 C 256.372 258.296,256.169 258.296,254.600 259.014 M100.400 259.798 C 100.400 260.236,102.376 263.600,102.634 263.600 C 102.744 263.600,102.344 262.745,101.746 261.700 C 100.456 259.448,100.400 259.369,100.400 259.798 M133.600 262.200 C 135.017 263.630,136.267 264.800,136.377 264.800 C 136.487 264.800,135.417 263.630,134.000 262.200 C 132.583 260.770,131.333 259.600,131.223 259.600 C 131.113 259.600,132.183 260.770,133.600 262.200 M183.436 261.968 C 183.909 262.404,186.804 263.330,187.019 263.114 C 187.111 263.023,186.260 262.652,185.129 262.290 C 183.998 261.929,183.237 261.784,183.436 261.968 M193.700 267.876 C 194.085 267.976,194.715 267.976,195.100 267.876 C 195.485 267.775,195.170 267.693,194.400 267.693 C 193.630 267.693,193.315 267.775,193.700 267.876 M197.900 268.282 C 198.395 268.378,199.205 268.378,199.700 268.282 C 200.195 268.187,199.790 268.109,198.800 268.109 C 197.810 268.109,197.405 268.187,197.900 268.282 M69.572 274.900 C 66.433 279.227,64.704 282.755,65.673 282.854 C 68.602 283.152,75.600 282.340,75.600 281.702 C 75.600 281.608,74.850 280.062,73.934 278.266 C 73.018 276.469,72.088 274.595,71.867 274.100 C 71.306 272.844,70.981 272.957,69.572 274.900 M211.400 273.600 C 210.293 273.882,210.277 273.909,211.200 273.947 C 211.750 273.969,212.470 273.813,212.800 273.600 C 213.481 273.160,213.129 273.160,211.400 273.600 M110.391 275.588 C 110.857 276.241,111.442 276.902,111.691 277.056 C 111.941 277.211,111.641 276.676,111.025 275.868 C 109.688 274.115,109.184 273.892,110.391 275.588 M108.974 278.200 C 110.367 280.252,110.652 280.495,109.877 278.971 C 109.534 278.295,108.949 277.490,108.578 277.182 C 108.207 276.874,108.385 277.332,108.974 278.200 " stroke="none" fill="#5c3c86" fill-rule="evenodd"/>
  </g>
</svg>